<?xml version="1.0" encoding="UTF-8" standalone="no" ?>
<!DOCTYPE svg PUBLIC "-//W3C//DTD SVG 1.1//EN" "http://www.w3.org/Graphics/SVG/1.1/DTD/svg11.dtd">
<svg xmlns="http://www.w3.org/2000/svg" xmlns:xlink="http://www.w3.org/1999/xlink" version="1.1" width="141.4592" height="141.188" xml:space="preserve">
<desc>Created with Fabric.js 1.6.0-rc.1</desc>
<defs></defs>
<g style="stroke: none; stroke-width: 1; stroke-dasharray: none; stroke-linecap: butt; stroke-linejoin: miter; stroke-miterlimit: 10; fill: none; fill-rule: nonzero; opacity: 1;" transform="translate(10 10) scale(0.24 0.24)" >
  <path d="M 156.762 355.214 c 22.055 22.055 22.055 58.289 0 80.345 c -22.055 22.055 -87.04 50.806 -109.095 28.751 s 6.695 -87.04 28.751 -109.095 C 98.473 333.159 134.313 333.159 156.762 355.214 z" style="stroke: none; stroke-width: 1; stroke-dasharray: none; stroke-linecap: butt; stroke-linejoin: miter; stroke-miterlimit: 10; fill: #f0845d; fill-rule: nonzero; opacity: 1;" transform=" matrix(1 0 0 1 0 0) " stroke-linecap="round" />
  <path d="M 90.99 344.58 v 2.363 c 0 40.96 33.477 74.437 74.437 74.437 h 1.575 c 11.028 -21.268 7.483 -48.049 -10.634 -66.166 C 139.039 337.491 112.258 333.946 90.99 344.58 z" style="stroke: none; stroke-width: 1; stroke-dasharray: none; stroke-linecap: butt; stroke-linejoin: miter; stroke-miterlimit: 10; fill: #DEB957; fill-rule: nonzero; opacity: 1;" transform=" matrix(1 0 0 1 0 0) " stroke-linecap="round" />
  <path d="M 272.553 231.546 c 67.348 67.348 80.738 163.052 16.935 226.855 l -30.326 30.326 c -63.803 63.803 -19.692 -89.403 -87.04 -156.751 s -220.948 -22.843 -156.751 -87.04 l 30.326 -30.326 C 109.501 150.808 205.205 164.199 272.553 231.546 L 272.553 231.546 z" style="stroke: none; stroke-width: 1; stroke-dasharray: none; stroke-linecap: butt; stroke-linejoin: miter; stroke-miterlimit: 10; fill: #198a29; fill-rule: nonzero; opacity: 1;" transform=" matrix(1 0 0 1 0 0) " stroke-linecap="round" />
  <path d="M 495.47 8.629 c 20.48 20.48 11.422 150.449 -114.215 276.48 c -81.92 81.526 -133.514 110.277 -133.514 110.277 c -54.745 37.022 -81.132 11.815 -115.791 -22.843 s -60.258 -61.046 -22.843 -115.791 c 0 0 29.145 -51.988 110.671 -133.908 C 345.414 -2.792 474.99 -12.244 495.47 8.629 L 495.47 8.629 z" style="stroke: none; stroke-width: 1; stroke-dasharray: none; stroke-linecap: butt; stroke-linejoin: miter; stroke-miterlimit: 10; fill: #f7df44; fill-rule: nonzero; opacity: 1;" transform=" matrix(1 0 0 1 0 0) " stroke-linecap="round" />
  <path d="M 269.402 377.663 c -57.108 38.203 -84.677 12.209 -120.517 -23.631 c -36.234 -36.234 -62.622 -63.409 -23.631 -120.517 l 5.908 -9.452 c -15.36 20.874 -22.055 32.689 -22.055 32.689 c -37.415 54.745 -11.815 81.132 22.843 115.791 s 61.046 59.471 115.791 22.843 c 0 0 24.418 -13.785 66.56 -48.837 C 285.55 368.605 269.402 377.663 269.402 377.663 z" style="stroke: none; stroke-width: 1; stroke-dasharray: none; stroke-linecap: butt; stroke-linejoin: miter; stroke-miterlimit: 10; fill: #E8E4C8; fill-rule: nonzero; opacity: 1;" transform=" matrix(1 0 0 1 0 0) " stroke-linecap="round" />
  <path d="M 363.531 140.568 c 19.298 19.298 19.298 50.412 0 69.711 c -19.298 19.298 -50.412 19.298 -69.711 0 c -19.298 -19.298 -19.298 -50.412 0 -69.711 S 344.627 121.269 363.531 140.568 z" style="stroke: none; stroke-width: 1; stroke-dasharray: none; stroke-linecap: butt; stroke-linejoin: miter; stroke-miterlimit: 10; fill: #8cad9b; fill-rule: nonzero; opacity: 1;" transform=" matrix(1 0 0 1 0 0) " stroke-linecap="round" />
  <path d="M 249.71 262.66 c 9.846 9.846 -9.058 44.898 -57.108 92.948 s -77.194 61.046 -87.04 50.806 c -9.846 -9.846 2.757 -38.991 50.806 -87.04 C 204.811 271.325 239.47 252.42 249.71 262.66 z" style="stroke: none; stroke-width: 1; stroke-dasharray: none; stroke-linecap: butt; stroke-linejoin: miter; stroke-miterlimit: 10; fill: #198a29; fill-rule: nonzero; opacity: 1;" transform=" matrix(1 0 0 1 0 0) " stroke-linecap="round" />
  <path d="M 328.873 137.811 c 9.846 0 19.298 3.938 26.388 11.028 c 7.089 7.089 11.028 16.542 11.028 26.388 s -3.938 19.298 -11.028 26.388 c -7.089 7.089 -16.542 11.028 -26.388 11.028 s -19.298 -3.938 -26.388 -11.028 c -7.089 -7.089 -11.028 -16.542 -11.028 -26.388 s 3.938 -19.298 11.028 -26.388 C 309.574 141.749 319.027 137.811 328.873 137.811 M 328.873 125.996 c -12.603 0 -25.206 4.726 -34.658 14.572 c -19.298 19.298 -19.298 50.412 0 69.711 c 9.452 9.452 22.055 14.572 34.658 14.572 s 25.206 -4.726 34.658 -14.572 c 19.298 -19.298 19.298 -50.412 0 -69.711 C 354.079 130.722 341.476 125.996 328.873 125.996 z" style="stroke: none; stroke-width: 1; stroke-dasharray: none; stroke-linecap: butt; stroke-linejoin: miter; stroke-miterlimit: 10; fill: #324D5B; fill-rule: nonzero; opacity: 1;" transform=" matrix(1 0 0 1 0 0) " stroke-linecap="round" />
  <path d="M 374.953 18.476 c 3.545 26.388 17.723 54.351 40.96 77.588 c 20.48 20.086 44.111 33.477 67.348 38.991 C 509.254 70.463 507.285 20.839 495.47 8.629 C 484.048 -3.186 436.787 -5.155 374.953 18.476 z" style="stroke: none; stroke-width: 1; stroke-dasharray: none; stroke-linecap: butt; stroke-linejoin: miter; stroke-miterlimit: 10; fill: #198a29; fill-rule: nonzero; opacity: 1;" transform=" matrix(1 0 0 1 0 0) " stroke-linecap="round" />
</g>
</svg>